<?xml version="1.0" encoding="UTF-8"?>
<svg width="51px" height="51px" viewBox="0 0 51 51" version="1.1" xmlns="http://www.w3.org/2000/svg" xmlns:xlink="http://www.w3.org/1999/xlink">
    <!-- Generator: Sketch 41.2 (35397) - http://www.bohemiancoding.com/sketch -->
    <title>Rectangle-path@2x</title>
    <desc>Created with Sketch.</desc>
    <defs></defs>
    <g id="Page-1" stroke="#A30F36" stroke-width="0.8" fill="none" fill-rule="evenodd">
        <g id="Artboard" transform="translate(-6.000000, -286.000000)" fill="#010202">
            <g id="Иконки" transform="translate(2.000000, 1.000000)">
                <path d="M42.3,301.5 L42.3,322.8 L42.3,323.4 L41.7,323.4 L17.4,323.4 L16.8,323.4 L16.8,322.8 L16.8,301.5 L16.3,301.5 L16.3,299.4 L19.9,296.9 L39.2,296.9 L42.8,299.4 L42.8,301.5 L42.3,301.5 L42.3,301.5 Z M32.1,301.5 L32.1,316.6 L33.1,316.6 L33.1,317.8 L32.1,317.8 L32.1,321.8 L41.1,321.8 L41.1,301.6 L32.1,301.6 L32.1,301.5 Z M27,321.7 L27,317.7 L26,317.7 L26,316.5 L27,316.5 L27,301.4 L18,301.4 L18,321.6 L27,321.6 L27,321.7 Z M30.9,317.7 L28.2,317.7 L28.2,322.2 L30.9,322.2 L30.9,317.7 L30.9,317.7 Z M28.2,316.5 L30.9,316.5 L30.9,314.8 L28.2,314.8 L28.2,316.5 L28.2,316.5 Z M28.2,314.1 L30.9,314.1 L30.9,312.6 L28.2,312.6 L28.2,314.1 L28.2,314.1 Z M30.9,303.2 L28.2,303.2 L28.2,304.7 L30.9,304.7 L30.9,303.2 L30.9,303.2 Z M28.2,302.4 L30.9,302.4 L30.9,300.7 L28.2,300.7 L28.2,302.4 L28.2,302.4 Z M30.9,305.6 L28.2,305.6 L28.2,307.1 L30.9,307.1 L30.9,305.6 L30.9,305.6 Z M30.9,307.9 L28.2,307.9 L28.2,309.4 L30.9,309.4 L30.9,307.9 L30.9,307.9 Z M30.9,310.2 L28.2,310.2 L28.2,311.7 L30.9,311.7 L30.9,310.2 L30.9,310.2 Z M39.3,303.1 L37.3,303.1 L37.3,305.8 L39.3,305.8 L39.3,303.1 L39.3,303.1 Z M25.1,303.1 L23.1,303.1 L23.1,305.8 L25.1,305.8 L25.1,303.1 L25.1,303.1 Z M25.1,317 L23.1,317 L23.1,319.7 L25.1,319.7 L25.1,317 L25.1,317 Z M21.7,317 L19.7,317 L19.7,319.7 L21.7,319.7 L21.7,317 L21.7,317 Z M25.1,312.4 L23.1,312.4 L23.1,315.1 L25.1,315.1 L25.1,312.4 L25.1,312.4 Z M21.7,312.4 L19.7,312.4 L19.7,315.1 L21.7,315.1 L21.7,312.4 L21.7,312.4 Z M25.1,307.8 L23.1,307.8 L23.1,310.5 L25.1,310.5 L25.1,307.8 L25.1,307.8 Z M21.7,307.8 L19.7,307.8 L19.7,310.5 L21.7,310.5 L21.7,307.8 L21.7,307.8 Z M21.7,303.1 L19.7,303.1 L19.7,305.8 L21.7,305.8 L21.7,303.1 L21.7,303.1 Z M39.3,317 L37.3,317 L37.3,319.7 L39.3,319.7 L39.3,317 L39.3,317 Z M36,317 L34,317 L34,319.7 L36,319.7 L36,317 L36,317 Z M39.3,312.4 L37.3,312.4 L37.3,315.1 L39.3,315.1 L39.3,312.4 L39.3,312.4 Z M36,312.4 L34,312.4 L34,315.1 L36,315.1 L36,312.4 L36,312.4 Z M39.3,307.8 L37.3,307.8 L37.3,310.5 L39.3,310.5 L39.3,307.8 L39.3,307.8 Z M36,307.8 L34,307.8 L34,310.5 L36,310.5 L36,307.8 L36,307.8 Z M36,303.1 L34,303.1 L34,305.8 L36,305.8 L36,303.1 Z" id="Shape"></path>
            </g>
        </g>
    </g>
</svg>