<svg width="27" height="27" viewBox="0 0 27 27" version="1.1" xmlns="http://www.w3.org/2000/svg" xmlns:xlink="http://www.w3.org/1999/xlink" xmlns:figma="http://www.figma.com/figma/ns">
<title>appartments</title>
<desc>Created using Figma</desc>
<g id="Canvas" transform="translate(170 139)" figma:type="canvas">
<g id="appartments" style="mix-blend-mode:normal;" figma:type="frame">
<g id="Rectangle" style="mix-blend-mode:normal;" figma:type="rounded-rectangle">
<use xlink:href="#path0_fill" transform="translate(-169 -136)" fill="#D0889A" style="mix-blend-mode:normal;"/>
</g>
<g id="Shape" style="mix-blend-mode:normal;" figma:type="vector">
<use xlink:href="#path1_fill" transform="translate(-170 -139)" fill="#A30F36" style="mix-blend-mode:normal;"/>
</g>
</g>
</g>
<defs>
<path id="path0_fill" d="M 0 0L 24 0L 24 23L 0 23L 0 0Z"/>
<path id="path1_fill" fill-rule="evenodd" d="M 26 4.6L 26 25.9L 26 26.5L 25.4 26.5L 1.1 26.5L 0.499999 26.5L 0.499999 25.9L 0.499999 4.6L -7.62939e-07 4.6L -7.62939e-07 2.49999L 3.6 -6.10352e-06L 22.9 -6.10352e-06L 26.5 2.49999L 26.5 4.6L 26 4.6ZM 15.8 4.6L 15.8 19.7L 16.8 19.7L 16.8 20.9L 15.8 20.9L 15.8 24.9L 24.8 24.9L 24.8 4.70001L 15.8 4.70001L 15.8 4.6ZM 10.7 24.8L 10.7 20.8L 9.7 20.8L 9.7 19.6L 10.7 19.6L 10.7 4.49999L 1.7 4.49999L 1.7 24.7L 10.7 24.7L 10.7 24.8ZM 14.6 20.8L 11.9 20.8L 11.9 25.3L 14.6 25.3L 14.6 20.8ZM 11.9 19.6L 14.6 19.6L 14.6 17.9L 11.9 17.9L 11.9 19.6ZM 11.9 17.2L 14.6 17.2L 14.6 15.7L 11.9 15.7L 11.9 17.2ZM 14.6 6.30001L 11.9 6.30001L 11.9 7.80001L 14.6 7.80001L 14.6 6.30001ZM 11.9 5.49999L 14.6 5.49999L 14.6 3.80001L 11.9 3.80001L 11.9 5.49999ZM 14.6 8.70001L 11.9 8.70001L 11.9 10.2L 14.6 10.2L 14.6 8.70001ZM 14.6 11L 11.9 11L 11.9 12.5L 14.6 12.5L 14.6 11ZM 14.6 13.3L 11.9 13.3L 11.9 14.8L 14.6 14.8L 14.6 13.3ZM 23 6.20001L 21 6.20001L 21 8.89999L 23 8.89999L 23 6.20001ZM 8.8 6.20001L 6.8 6.20001L 6.8 8.89999L 8.8 8.89999L 8.8 6.20001ZM 8.8 20.1L 6.8 20.1L 6.8 22.8L 8.8 22.8L 8.8 20.1ZM 5.4 20.1L 3.4 20.1L 3.4 22.8L 5.4 22.8L 5.4 20.1ZM 8.8 15.5L 6.8 15.5L 6.8 18.2L 8.8 18.2L 8.8 15.5ZM 5.4 15.5L 3.4 15.5L 3.4 18.2L 5.4 18.2L 5.4 15.5ZM 8.8 10.9L 6.8 10.9L 6.8 13.6L 8.8 13.6L 8.8 10.9ZM 5.4 10.9L 3.4 10.9L 3.4 13.6L 5.4 13.6L 5.4 10.9ZM 5.4 6.20001L 3.4 6.20001L 3.4 8.89999L 5.4 8.89999L 5.4 6.20001ZM 23 20.1L 21 20.1L 21 22.8L 23 22.8L 23 20.1ZM 19.7 20.1L 17.7 20.1L 17.7 22.8L 19.7 22.8L 19.7 20.1ZM 23 15.5L 21 15.5L 21 18.2L 23 18.2L 23 15.5ZM 19.7 15.5L 17.7 15.5L 17.7 18.2L 19.7 18.2L 19.7 15.5ZM 23 10.9L 21 10.9L 21 13.6L 23 13.6L 23 10.9ZM 19.7 10.9L 17.7 10.9L 17.7 13.6L 19.7 13.6L 19.7 10.9ZM 19.7 6.20001L 17.7 6.20001L 17.7 8.89999L 19.7 8.89999L 19.7 6.20001Z"/>
</defs>
</svg>
