<?xml version="1.0" encoding="UTF-8"?>
<svg width="66px" height="66px" viewBox="0 0 66 66" version="1.1" xmlns="http://www.w3.org/2000/svg" xmlns:xlink="http://www.w3.org/1999/xlink">
    <!-- Generator: Sketch 41.2 (35397) - http://www.bohemiancoding.com/sketch -->
    <title>Slice Copy 7</title>
    <desc>Created with Sketch.</desc>
    <defs></defs>
    <g id="Page-1" stroke="none" stroke-width="1" fill="none" fill-rule="evenodd">
        <g id="Производственная-база" transform="translate(-729.000000, -166.000000)">
            <polyline id="Fill-5" fill="#8D1736" points="735.1 201.882 764.234 172.748 782.644 191.158 782.644 212.607 764.234 231.016 735.1 201.882"></polyline>
            <polygon id="Fill-6" fill="#1A1918" points="781.241 231.23 782.644 231.23 782.644 172.786 781.241 172.786"></polygon>
            <path d="M763.797,213.182 C761.712,212.605 760.831,216.024 763.045,216.512 C765.187,216.984 766.177,213.841 763.797,213.182 Z M777.144,205.266 L777.214,204.762 C777.748,203.884 777.224,203.491 778.322,202.464 L778.339,206.294 L778.332,207.083 L778.319,207.478 C777.78,207.539 777.335,207.657 776.839,207.572 C776.815,207.591 776.774,207.581 776.76,207.617 L776.492,207.717 C776.388,207.743 776.167,207.767 776.094,207.78 C775.824,207.824 775.573,207.87 775.299,207.909 C774.705,207.993 774.295,208.133 773.699,208.124 L773.708,207.929 C774.153,207.657 774.143,207.404 774.627,207.162 C774.87,206.936 775.451,206.832 775.897,206.672 C776.481,206.462 776.758,206.452 776.95,205.938 L777.144,205.266 Z M744.853,215.135 C745.31,212.968 741.766,212.271 741.449,214.57 C741.132,216.876 744.4,217.281 744.853,215.135 Z M739.193,213.121 L738.939,214.3 C738.315,214.255 736.064,214.486 735.673,214.154 C735.398,213.996 735.263,213.782 735.239,213.428 C735.1,213.284 735.177,213.416 735.078,213.191 C735.052,213.131 735.013,212.955 735.007,212.923 C734.983,212.77 734.985,212.533 734.977,212.373 C735.431,211.935 735.324,212.468 735.391,211.79 C735.432,210.695 735.212,208.31 735.617,207.464 C736.004,206.654 736.287,206.974 736.969,206.538 L741.932,200.113 L749.711,200.109 L749.706,212.421 C750.555,212.464 753.45,211.966 754.434,211.79 C755.825,211.542 767.923,209.766 768.424,209.821 L768.51,209.692 L769.734,209.517 L773.06,209.069 L773.221,208.952 C774.038,209.087 776.317,208.544 777.295,208.431 L780.204,208.003 C780.13,208.211 776.485,212.623 776.017,212.959 C775.649,212.271 775.326,211.975 774.878,211.494 C774.498,211.356 774.09,211.046 773.613,210.844 L772.476,210.609 C771.581,210.561 770.922,210.799 770.238,211.052 C770.008,211.306 769.747,211.364 769.492,211.556 C769.24,211.746 769.103,211.958 768.89,212.209 C768.011,213.247 768.742,213.378 767.483,213.341 C766.857,212.424 766.782,211.871 765.903,211.357 C762.531,209.381 759.765,211.667 759.406,213.774 C756.381,213.794 749.599,214.428 747.401,214.271 C746.927,213.083 747.024,212.726 746.209,211.879 C745.751,211.404 744.777,210.776 743.806,210.632 C742.212,210.394 740.817,211.039 739.909,212.099 C739.71,212.331 739.373,212.962 739.193,213.121 Z M773.903,204.43 C773.52,204.849 773.141,205.104 772.664,205.492 C772.187,205.881 771.872,206.091 771.373,206.486 C770.745,206.981 769.359,207.909 768.504,208.218 L768.227,208.373 L765.089,209.324 C764.122,209.586 758.836,210.97 758.199,210.749 C757.808,210.614 757.263,210.241 756.841,210.034 C756.291,209.764 755.956,209.515 755.447,209.262 C754.492,208.785 753.651,208.28 752.706,207.784 C751.791,207.305 751.928,206.598 751.44,204.825 C751.125,203.679 750.879,202.642 750.538,201.511 C750.255,200.57 750.882,200.025 751.65,198.748 C752.18,197.866 752.767,197.024 753.267,196.146 C754.127,194.634 753.851,194.877 755.628,194.289 C757.82,193.563 759.923,192.995 762.199,192.415 C765.084,191.68 766.834,192.074 769.741,192.482 C770.823,192.633 776.28,193.462 776.84,193.818 L778.647,200.416 L775.787,202.911 C775.546,203.098 774.955,203.49 774.899,203.739 C774.365,203.989 774.312,204.246 773.903,204.43 Z M748.365,201.625 C747.324,201.567 746.172,201.612 745.119,201.612 C741.618,201.612 743.212,201.361 740.78,203.732 C740.454,204.05 740.419,204.21 740.038,204.586 C739.67,204.95 739.557,205.07 739.561,205.649 C740.315,206.081 746.942,205.898 748.402,205.845 L748.365,201.625 Z M773.464,211.55 C773.653,211.541 774.5,211.096 774.764,212.121 C774.835,212.393 774.577,211.985 774.829,212.387 C775.165,212.923 775.279,212.224 775.686,213.099 C775.968,213.705 775.524,213.67 775.792,214.118 C775.805,214.14 775.833,214.161 775.848,214.182 C776.129,214.582 776.106,214.344 776.089,215.249 C775.842,215.44 776.394,215.386 775.78,215.403 C775.612,215.893 775.716,215.526 775.789,216.072 L775.784,216.174 C775.683,217.078 775.194,216.902 774.955,217.138 C774.643,217.447 775.085,217.413 774.652,217.846 C773.868,218.63 773.93,218.063 773.608,218.157 C772.879,218.501 773.827,218.507 772.827,218.668 C772.381,218.739 772.247,218.617 772.072,218.512 C771.565,218.207 771.128,218.958 770.485,218.172 C770.256,217.892 770.547,218.019 770.213,217.842 C769.805,217.656 769.855,218.063 769.353,217.476 C768.867,216.907 769.247,217.018 769.113,216.616 C768.754,216.094 768.674,216.807 768.447,215.865 C768.192,214.805 768.912,215.408 768.588,214.829 C768.388,214.474 768.239,213.982 768.598,213.614 L768.804,213.473 C769.315,213.063 768.657,212.288 769.726,212.082 C770.385,211.954 770.097,211.891 770.217,211.478 L770.588,211.419 C771.344,210.709 771.136,211.503 771.704,211.28 C772.294,211.047 771.191,210.877 773.187,211.064 C773.293,211.279 773.33,211.336 773.464,211.55 Z M772.348,213.117 C770.837,213.075 769.892,214.768 770.905,215.937 C771.867,217.047 773.575,216.626 773.869,215.146 C773.929,213.815 773.424,213.395 772.348,213.117 Z M739.575,214.906 C739.512,214.746 739.201,214.532 739.371,213.945 C739.638,213.019 739.68,213.916 739.908,213.25 C740.059,212.808 739.617,213.043 740.102,212.406 C740.653,211.681 740.853,212.369 741.141,211.798 L741.266,211.494 C741.756,210.924 742.173,211.378 742.569,211.308 C743.24,211.191 742.423,210.856 744.092,211.084 C744.249,211.329 744.175,211.481 744.555,211.507 C745.065,211.543 744.351,211.188 745.109,211.488 C745.828,211.774 745.658,212.085 745.811,212.519 C745.93,212.662 746.187,212.329 746.523,212.934 C746.871,213.56 746.566,213.731 746.623,213.995 C746.868,214.534 746.953,213.872 747.029,214.692 C747.095,215.394 746.934,215.202 746.768,215.432 C746.292,216.091 747.155,215.806 746.523,216.769 C746.173,217.303 746.331,216.879 745.978,217.068 C745.641,217.249 745.826,217.351 745.737,217.616 C745.659,217.849 745.438,218.015 745.23,218.109 C744.382,218.494 745.198,217.974 744.524,218.175 C743.823,218.468 744.75,218.523 743.734,218.671 C743.554,218.697 743.383,218.684 743.235,218.635 C743.004,218.558 743.209,218.629 742.991,218.503 C742.402,218.163 742.823,218.529 742.256,218.559 C741.287,218.612 741.326,217.919 741.171,217.823 C740.708,217.668 740.727,217.942 740.335,217.525 C739.785,216.939 740.163,217.043 740.021,216.674 C739.812,216.13 739.706,216.712 739.423,215.915 C739.199,215.283 739.504,215.309 739.575,214.906 Z M759.879,214.906 C759.867,214.877 759.837,214.846 759.826,214.827 C759.221,213.831 760.06,213.488 760.146,213.377 C760.364,213.098 760.161,213.148 760.232,212.765 C760.377,211.973 761.142,212.136 761.333,211.968 C761.917,211.455 760.946,211.862 761.679,211.391 C762.358,210.955 762.361,211.4 762.892,211.308 C763.436,211.213 762.85,211.344 763.173,211.149 C763.38,211.025 762.89,211.043 763.604,210.982 C763.632,210.98 764.137,211.031 764.158,211.037 C765.054,211.294 763.982,211.29 764.803,211.498 C765.36,211.64 764.72,211.135 765.483,211.532 C766.106,211.856 765.961,212.073 766.089,212.332 C766.381,212.924 766.361,212.164 766.844,212.918 C767.217,213.5 766.979,213.494 766.967,213.796 C766.945,214.385 766.971,214.082 767.299,214.337 C767.386,215.821 767.033,215.052 766.976,215.726 C766.976,215.729 767.23,216.635 766.622,216.974 C766.325,217.14 766.443,216.775 766.153,217.214 C765.832,217.704 766.335,217.207 765.991,217.749 C765.579,218.399 765.139,218.044 764.836,218.179 C764.613,218.278 764.319,218.893 763.533,218.643 C763.243,218.551 763.533,218.657 763.29,218.509 C762.818,218.222 762.951,218.519 762.557,218.549 C761.685,218.615 761.632,217.902 761.435,217.782 C761.044,217.621 761.215,218.063 760.658,217.511 C760.028,216.887 760.528,217.052 760.316,216.637 C759.942,216.052 759.97,216.848 759.707,215.821 C759.432,214.749 759.754,215.689 759.879,214.906 Z" id="Fill-129" fill="#8D1736"></path>
            <path d="M763.797,213.182 C761.712,212.605 760.831,216.024 763.045,216.512 C765.187,216.984 766.177,213.841 763.797,213.182 Z M777.144,205.266 L777.214,204.762 C777.748,203.884 777.224,203.491 778.322,202.464 L778.339,206.294 L778.332,207.083 L778.319,207.478 C777.78,207.539 777.335,207.657 776.839,207.572 C776.815,207.591 776.774,207.581 776.76,207.617 L776.492,207.717 C776.388,207.743 776.167,207.767 776.094,207.78 C775.824,207.824 775.573,207.87 775.299,207.909 C774.705,207.993 774.295,208.133 773.699,208.124 L773.708,207.929 C774.153,207.657 774.143,207.404 774.627,207.162 C774.87,206.936 775.451,206.832 775.897,206.672 C776.481,206.462 776.758,206.452 776.95,205.938 L777.144,205.266 Z M744.853,215.135 C745.31,212.968 741.766,212.271 741.449,214.57 C741.132,216.876 744.4,217.281 744.853,215.135 Z M739.193,213.121 L738.939,214.3 C738.315,214.255 736.064,214.486 735.673,214.154 C735.398,213.996 735.263,213.782 735.239,213.428 C735.1,213.284 735.177,213.416 735.078,213.191 C735.052,213.131 735.013,212.955 735.007,212.923 C734.983,212.77 734.985,212.533 734.977,212.373 C735.431,211.935 735.324,212.468 735.391,211.79 C735.432,210.695 735.212,208.31 735.617,207.464 C736.004,206.654 736.287,206.974 736.969,206.538 L741.932,200.113 L749.711,200.109 L749.706,212.421 C750.555,212.464 753.45,211.966 754.434,211.79 C755.825,211.542 767.923,209.766 768.424,209.821 L768.51,209.692 L769.734,209.517 L773.06,209.069 L773.221,208.952 C774.038,209.087 776.317,208.544 777.295,208.431 L780.204,208.003 C780.13,208.211 776.485,212.623 776.017,212.959 C775.649,212.271 775.326,211.975 774.878,211.494 C774.498,211.356 774.09,211.046 773.613,210.844 L772.476,210.609 C771.581,210.561 770.922,210.799 770.238,211.052 C770.008,211.306 769.747,211.364 769.492,211.556 C769.24,211.746 769.103,211.958 768.89,212.209 C768.011,213.247 768.742,213.378 767.483,213.341 C766.857,212.424 766.782,211.871 765.903,211.357 C762.531,209.381 759.765,211.667 759.406,213.774 C756.381,213.794 749.599,214.428 747.401,214.271 C746.927,213.083 747.024,212.726 746.209,211.879 C745.751,211.404 744.777,210.776 743.806,210.632 C742.212,210.394 740.817,211.039 739.909,212.099 C739.71,212.331 739.373,212.962 739.193,213.121 Z M773.903,204.43 C773.52,204.849 773.141,205.104 772.664,205.492 C772.187,205.881 771.872,206.091 771.373,206.486 C770.745,206.981 769.359,207.909 768.504,208.218 L768.227,208.373 L765.089,209.324 C764.122,209.586 758.836,210.97 758.199,210.749 C757.808,210.614 757.263,210.241 756.841,210.034 C756.291,209.764 755.956,209.515 755.447,209.262 C754.492,208.785 753.651,208.28 752.706,207.784 C751.791,207.305 751.928,206.598 751.44,204.825 C751.125,203.679 750.879,202.642 750.538,201.511 C750.255,200.57 750.882,200.025 751.65,198.748 C752.18,197.866 752.767,197.024 753.267,196.146 C754.127,194.634 753.851,194.877 755.628,194.289 C757.82,193.563 759.923,192.995 762.199,192.415 C765.084,191.68 766.834,192.074 769.741,192.482 C770.823,192.633 776.28,193.462 776.84,193.818 L778.647,200.416 L775.787,202.911 C775.546,203.098 774.955,203.49 774.899,203.739 C774.365,203.989 774.312,204.246 773.903,204.43 Z M748.365,201.625 C747.324,201.567 746.172,201.612 745.119,201.612 C741.618,201.612 743.212,201.361 740.78,203.732 C740.454,204.05 740.419,204.21 740.038,204.586 C739.67,204.95 739.557,205.07 739.561,205.649 C740.315,206.081 746.942,205.898 748.402,205.845 L748.365,201.625 Z M773.464,211.55 C773.653,211.541 774.5,211.096 774.764,212.121 C774.835,212.393 774.577,211.985 774.829,212.387 C775.165,212.923 775.279,212.224 775.686,213.099 C775.968,213.705 775.524,213.67 775.792,214.118 C775.805,214.14 775.833,214.161 775.848,214.182 C776.129,214.582 776.106,214.344 776.089,215.249 C775.842,215.44 776.394,215.386 775.78,215.403 C775.612,215.893 775.716,215.526 775.789,216.072 L775.784,216.174 C775.683,217.078 775.194,216.902 774.955,217.138 C774.643,217.447 775.085,217.413 774.652,217.846 C773.868,218.63 773.93,218.063 773.608,218.157 C772.879,218.501 773.827,218.507 772.827,218.668 C772.381,218.739 772.247,218.617 772.072,218.512 C771.565,218.207 771.128,218.958 770.485,218.172 C770.256,217.892 770.547,218.019 770.213,217.842 C769.805,217.656 769.855,218.063 769.353,217.476 C768.867,216.907 769.247,217.018 769.113,216.616 C768.754,216.094 768.674,216.807 768.447,215.865 C768.192,214.805 768.912,215.408 768.588,214.829 C768.388,214.474 768.239,213.982 768.598,213.614 L768.804,213.473 C769.315,213.063 768.657,212.288 769.726,212.082 C770.385,211.954 770.097,211.891 770.217,211.478 L770.588,211.419 C771.344,210.709 771.136,211.503 771.704,211.28 C772.294,211.047 771.191,210.877 773.187,211.064 C773.293,211.279 773.33,211.336 773.464,211.55 Z M772.348,213.117 C770.837,213.075 769.892,214.768 770.905,215.937 C771.867,217.047 773.575,216.626 773.869,215.146 C773.929,213.815 773.424,213.395 772.348,213.117 Z M739.575,214.906 C739.512,214.746 739.201,214.532 739.371,213.945 C739.638,213.019 739.68,213.916 739.908,213.25 C740.059,212.808 739.617,213.043 740.102,212.406 C740.653,211.681 740.853,212.369 741.141,211.798 L741.266,211.494 C741.756,210.924 742.173,211.378 742.569,211.308 C743.24,211.191 742.423,210.856 744.092,211.084 C744.249,211.329 744.175,211.481 744.555,211.507 C745.065,211.543 744.351,211.188 745.109,211.488 C745.828,211.774 745.658,212.085 745.811,212.519 C745.93,212.662 746.187,212.329 746.523,212.934 C746.871,213.56 746.566,213.731 746.623,213.995 C746.868,214.534 746.953,213.872 747.029,214.692 C747.095,215.394 746.934,215.202 746.768,215.432 C746.292,216.091 747.155,215.806 746.523,216.769 C746.173,217.303 746.331,216.879 745.978,217.068 C745.641,217.249 745.826,217.351 745.737,217.616 C745.659,217.849 745.438,218.015 745.23,218.109 C744.382,218.494 745.198,217.974 744.524,218.175 C743.823,218.468 744.75,218.523 743.734,218.671 C743.554,218.697 743.383,218.684 743.235,218.635 C743.004,218.558 743.209,218.629 742.991,218.503 C742.402,218.163 742.823,218.529 742.256,218.559 C741.287,218.612 741.326,217.919 741.171,217.823 C740.708,217.668 740.727,217.942 740.335,217.525 C739.785,216.939 740.163,217.043 740.021,216.674 C739.812,216.13 739.706,216.712 739.423,215.915 C739.199,215.283 739.504,215.309 739.575,214.906 Z M759.879,214.906 C759.867,214.877 759.837,214.846 759.826,214.827 C759.221,213.831 760.06,213.488 760.146,213.377 C760.364,213.098 760.161,213.148 760.232,212.765 C760.377,211.973 761.142,212.136 761.333,211.968 C761.917,211.455 760.946,211.862 761.679,211.391 C762.358,210.955 762.361,211.4 762.892,211.308 C763.436,211.213 762.85,211.344 763.173,211.149 C763.38,211.025 762.89,211.043 763.604,210.982 C763.632,210.98 764.137,211.031 764.158,211.037 C765.054,211.294 763.982,211.29 764.803,211.498 C765.36,211.64 764.72,211.135 765.483,211.532 C766.106,211.856 765.961,212.073 766.089,212.332 C766.381,212.924 766.361,212.164 766.844,212.918 C767.217,213.5 766.979,213.494 766.967,213.796 C766.945,214.385 766.971,214.082 767.299,214.337 C767.386,215.821 767.033,215.052 766.976,215.726 C766.976,215.729 767.23,216.635 766.622,216.974 C766.325,217.14 766.443,216.775 766.153,217.214 C765.832,217.704 766.335,217.207 765.991,217.749 C765.579,218.399 765.139,218.044 764.836,218.179 C764.613,218.278 764.319,218.893 763.533,218.643 C763.243,218.551 763.533,218.657 763.29,218.509 C762.818,218.222 762.951,218.519 762.557,218.549 C761.685,218.615 761.632,217.902 761.435,217.782 C761.044,217.621 761.215,218.063 760.658,217.511 C760.028,216.887 760.528,217.052 760.316,216.637 C759.942,216.052 759.97,216.848 759.707,215.821 C759.432,214.749 759.754,215.689 759.879,214.906 Z" id="Stroke-130" stroke="#8D1736" stroke-width="1.417"></path>
            <path d="M763.797,213.182 C761.712,212.605 760.831,216.024 763.045,216.512 C765.187,216.984 766.177,213.841 763.797,213.182 Z M777.144,205.266 L777.214,204.762 C777.748,203.884 777.224,203.491 778.322,202.464 L778.339,206.294 L778.332,207.083 L778.319,207.478 C777.78,207.539 777.335,207.657 776.839,207.572 C776.815,207.591 776.774,207.581 776.76,207.617 L776.492,207.717 C776.388,207.743 776.167,207.767 776.094,207.78 C775.824,207.824 775.573,207.87 775.299,207.909 C774.705,207.993 774.295,208.133 773.699,208.124 L773.708,207.929 C774.153,207.657 774.143,207.404 774.627,207.162 C774.87,206.936 775.451,206.832 775.897,206.672 C776.481,206.462 776.758,206.452 776.95,205.938 L777.144,205.266 Z M744.853,215.135 C745.31,212.968 741.766,212.271 741.449,214.57 C741.132,216.876 744.4,217.281 744.853,215.135 Z M739.193,213.121 L738.939,214.3 C738.315,214.255 736.064,214.486 735.673,214.154 C735.398,213.996 735.263,213.782 735.239,213.428 C735.1,213.284 735.177,213.416 735.078,213.191 C735.052,213.131 735.013,212.955 735.007,212.923 C734.983,212.77 734.985,212.533 734.977,212.373 C735.431,211.935 735.324,212.468 735.391,211.79 C735.432,210.695 735.212,208.31 735.617,207.464 C736.004,206.654 736.287,206.974 736.969,206.538 L741.932,200.113 L749.711,200.109 L749.706,212.421 C750.555,212.464 753.45,211.966 754.434,211.79 C755.825,211.542 767.923,209.766 768.424,209.821 L768.51,209.692 L769.734,209.517 L773.06,209.069 L773.221,208.952 C774.038,209.087 776.317,208.544 777.295,208.431 L780.204,208.003 C780.13,208.211 776.485,212.623 776.017,212.959 C775.649,212.271 775.326,211.975 774.878,211.494 C774.498,211.356 774.09,211.046 773.613,210.844 L772.476,210.609 C771.581,210.561 770.922,210.799 770.238,211.052 C770.008,211.306 769.747,211.364 769.492,211.556 C769.24,211.746 769.103,211.958 768.89,212.209 C768.011,213.247 768.742,213.378 767.483,213.341 C766.857,212.424 766.782,211.871 765.903,211.357 C762.531,209.381 759.765,211.667 759.406,213.774 C756.381,213.794 749.599,214.428 747.401,214.271 C746.927,213.083 747.024,212.726 746.209,211.879 C745.751,211.404 744.777,210.776 743.806,210.632 C742.212,210.394 740.817,211.039 739.909,212.099 C739.71,212.331 739.373,212.962 739.193,213.121 Z M773.903,204.43 C773.52,204.849 773.141,205.104 772.664,205.492 C772.187,205.881 771.872,206.091 771.373,206.486 C770.745,206.981 769.359,207.909 768.504,208.218 L768.227,208.373 L765.089,209.324 C764.122,209.586 758.836,210.97 758.199,210.749 C757.808,210.614 757.263,210.241 756.841,210.034 C756.291,209.764 755.956,209.515 755.447,209.262 C754.492,208.785 753.651,208.28 752.706,207.784 C751.791,207.305 751.928,206.598 751.44,204.825 C751.125,203.679 750.879,202.642 750.538,201.511 C750.255,200.57 750.882,200.025 751.65,198.748 C752.18,197.866 752.767,197.024 753.267,196.146 C754.127,194.634 753.851,194.877 755.628,194.289 C757.82,193.563 759.923,192.995 762.199,192.415 C765.084,191.68 766.834,192.074 769.741,192.482 C770.823,192.633 776.28,193.462 776.84,193.818 L778.647,200.416 L775.787,202.911 C775.546,203.098 774.955,203.49 774.899,203.739 C774.365,203.989 774.312,204.246 773.903,204.43 Z M748.365,201.625 C747.324,201.567 746.172,201.612 745.119,201.612 C741.618,201.612 743.212,201.361 740.78,203.732 C740.454,204.05 740.419,204.21 740.038,204.586 C739.67,204.95 739.557,205.07 739.561,205.649 C740.315,206.081 746.942,205.898 748.402,205.845 L748.365,201.625 Z M773.464,211.55 C773.653,211.541 774.5,211.096 774.764,212.121 C774.835,212.393 774.577,211.985 774.829,212.387 C775.165,212.923 775.279,212.224 775.686,213.099 C775.968,213.705 775.524,213.67 775.792,214.118 C775.805,214.14 775.833,214.161 775.848,214.182 C776.129,214.582 776.106,214.344 776.089,215.249 C775.842,215.44 776.394,215.386 775.78,215.403 C775.612,215.893 775.716,215.526 775.789,216.072 L775.784,216.174 C775.683,217.078 775.194,216.902 774.955,217.138 C774.643,217.447 775.085,217.413 774.652,217.846 C773.868,218.63 773.93,218.063 773.608,218.157 C772.879,218.501 773.827,218.507 772.827,218.668 C772.381,218.739 772.247,218.617 772.072,218.512 C771.565,218.207 771.128,218.958 770.485,218.172 C770.256,217.892 770.547,218.019 770.213,217.842 C769.805,217.656 769.855,218.063 769.353,217.476 C768.867,216.907 769.247,217.018 769.113,216.616 C768.754,216.094 768.674,216.807 768.447,215.865 C768.192,214.805 768.912,215.408 768.588,214.829 C768.388,214.474 768.239,213.982 768.598,213.614 L768.804,213.473 C769.315,213.063 768.657,212.288 769.726,212.082 C770.385,211.954 770.097,211.891 770.217,211.478 L770.588,211.419 C771.344,210.709 771.136,211.503 771.704,211.28 C772.294,211.047 771.191,210.877 773.187,211.064 C773.293,211.279 773.33,211.336 773.464,211.55 Z M772.348,213.117 C770.837,213.075 769.892,214.768 770.905,215.937 C771.867,217.047 773.575,216.626 773.869,215.146 C773.929,213.815 773.424,213.395 772.348,213.117 Z M739.575,214.906 C739.512,214.746 739.201,214.532 739.371,213.945 C739.638,213.019 739.68,213.916 739.908,213.25 C740.059,212.808 739.617,213.043 740.102,212.406 C740.653,211.681 740.853,212.369 741.141,211.798 L741.266,211.494 C741.756,210.924 742.173,211.378 742.569,211.308 C743.24,211.191 742.423,210.856 744.092,211.084 C744.249,211.329 744.175,211.481 744.555,211.507 C745.065,211.543 744.351,211.188 745.109,211.488 C745.828,211.774 745.658,212.085 745.811,212.519 C745.93,212.662 746.187,212.329 746.523,212.934 C746.871,213.56 746.566,213.731 746.623,213.995 C746.868,214.534 746.953,213.872 747.029,214.692 C747.095,215.394 746.934,215.202 746.768,215.432 C746.292,216.091 747.155,215.806 746.523,216.769 C746.173,217.303 746.331,216.879 745.978,217.068 C745.641,217.249 745.826,217.351 745.737,217.616 C745.659,217.849 745.438,218.015 745.23,218.109 C744.382,218.494 745.198,217.974 744.524,218.175 C743.823,218.468 744.75,218.523 743.734,218.671 C743.554,218.697 743.383,218.684 743.235,218.635 C743.004,218.558 743.209,218.629 742.991,218.503 C742.402,218.163 742.823,218.529 742.256,218.559 C741.287,218.612 741.326,217.919 741.171,217.823 C740.708,217.668 740.727,217.942 740.335,217.525 C739.785,216.939 740.163,217.043 740.021,216.674 C739.812,216.13 739.706,216.712 739.423,215.915 C739.199,215.283 739.504,215.309 739.575,214.906 Z M759.879,214.906 C759.867,214.877 759.837,214.846 759.826,214.827 C759.221,213.831 760.06,213.488 760.146,213.377 C760.364,213.098 760.161,213.148 760.232,212.765 C760.377,211.973 761.142,212.136 761.333,211.968 C761.917,211.455 760.946,211.862 761.679,211.391 C762.358,210.955 762.361,211.4 762.892,211.308 C763.436,211.213 762.85,211.344 763.173,211.149 C763.38,211.025 762.89,211.043 763.604,210.982 C763.632,210.98 764.137,211.031 764.158,211.037 C765.054,211.294 763.982,211.29 764.803,211.498 C765.36,211.64 764.72,211.135 765.483,211.532 C766.106,211.856 765.961,212.073 766.089,212.332 C766.381,212.924 766.361,212.164 766.844,212.918 C767.217,213.5 766.979,213.494 766.967,213.796 C766.945,214.385 766.971,214.082 767.299,214.337 C767.386,215.821 767.033,215.052 766.976,215.726 C766.976,215.729 767.23,216.635 766.622,216.974 C766.325,217.14 766.443,216.775 766.153,217.214 C765.832,217.704 766.335,217.207 765.991,217.749 C765.579,218.399 765.139,218.044 764.836,218.179 C764.613,218.278 764.319,218.893 763.533,218.643 C763.243,218.551 763.533,218.657 763.29,218.509 C762.818,218.222 762.951,218.519 762.557,218.549 C761.685,218.615 761.632,217.902 761.435,217.782 C761.044,217.621 761.215,218.063 760.658,217.511 C760.028,216.887 760.528,217.052 760.316,216.637 C759.942,216.052 759.97,216.848 759.707,215.821 C759.432,214.749 759.754,215.689 759.879,214.906 L759.879,214.906 Z" id="Fill-131" fill="#FFFFFF"></path>
        </g>
    </g>
</svg>