<svg width="27" height="27" viewBox="0 0 27 27" version="1.1" xmlns="http://www.w3.org/2000/svg" xmlns:xlink="http://www.w3.org/1999/xlink" xmlns:figma="http://www.figma.com/figma/ns">
<title>garage</title>
<desc>Created using Figma</desc>
<g id="Canvas" transform="translate(122 139)" figma:type="canvas">
<g id="garage" style="mix-blend-mode:normal;" figma:type="frame">
<g id="Rectangle 2" style="mix-blend-mode:normal;" figma:type="rounded-rectangle">
<use xlink:href="#path0_fill" transform="translate(-121 -135)" fill="#D0889A" style="mix-blend-mode:normal;"/>
</g>
<g id="Vector 2" style="mix-blend-mode:normal;" figma:type="vector">
<use xlink:href="#path1_fill" transform="translate(-116.5 -138)" fill="#D0889A" style="mix-blend-mode:normal;"/>
</g>
<g id="Shape" style="mix-blend-mode:normal;" figma:type="vector">
<use xlink:href="#path2_fill" transform="translate(-122 -139)" fill="#A30F36" style="mix-blend-mode:normal;"/>
</g>
</g>
</g>
<defs>
<path id="path0_fill" d="M 0 0L 25 0L 25 22L 0 22L 0 0Z"/>
<path id="path1_fill" d="M 5 0L 0 2.5L 15.5 2.5L 11.5 0L 5 0Z"/>
<path id="path2_fill" fill-rule="evenodd" d="M 0.600006 2.99999L 5.60001 2.99999C 6.50001 2.09999 7.59999 1.30001 8.89999 0.800012C 10.2 0.300012 11.7 -6.10352e-06 13.3 -6.10352e-06C 14.9 -6.10352e-06 16.3 0.300012 17.7 0.800012C 19 1.30001 20.1 2.09999 21 2.99999L 26 2.99999L 26.6 2.99999L 26.6 3.6L 26.6 26L 26.6 26.6L 0 26.6L 0 26L 0 3.6L 0 2.99999L 0.600006 2.99999ZM 19.9 13.9L 6.7 13.9L 6.7 14.8L 19.9 14.8L 19.9 13.9ZM 6.8 13.1L 20 13.1L 20 11.9L 6.8 11.9L 6.8 13.1ZM 7.5 2.99999L 19.3 2.99999C 18.7 2.59999 18.1 2.19999 17.3 1.89999C 16.1 1.39999 14.8 1.1 13.4 1.1C 12 1.1 10.7 1.39999 9.5 1.89999C 8.7 2.19999 8 2.49999 7.5 2.99999ZM 14.1 4.20001L 14.1 10.8L 20.5 10.8L 21.1 10.8L 21.1 11.4L 21.1 25.4L 25.4 25.4L 25.4 4.20001L 14.1 4.20001ZM 12.5 10.7L 12.5 4.1L 1.2 4.1L 1.2 25.3L 5.5 25.3L 5.5 11.3L 5.5 10.7L 6.10001 10.7L 12.5 10.7ZM 10.8 19.5L 15.9 19.5L 16.5 19.5L 16.5 19.9L 19.9 19.9L 19.9 19L 6.7 19L 6.7 19.9L 10.1 19.9L 10.1 19.5L 10.8 19.5ZM 16.5 20.7L 16.5 21.6L 19.9 21.6L 19.9 20.7L 16.5 20.7ZM 16.5 22.4L 16.5 23.3L 19.9 23.3L 19.9 22.4L 16.5 22.4ZM 16.5 24.1L 16.5 25.3L 19.9 25.3L 19.9 24.1L 16.5 24.1ZM 19.9 18.2L 19.9 17.3L 6.7 17.3L 6.7 18.2L 19.9 18.2ZM 19.9 16.5L 19.9 15.6L 6.7 15.6L 6.7 16.5L 19.9 16.5ZM 6.8 20.7L 6.8 21.6L 10.2 21.6L 10.2 20.7L 6.8 20.7ZM 6.8 22.4L 6.8 23.3L 10.2 23.3L 10.2 22.4L 6.8 22.4ZM 6.8 24.1L 6.8 25.3L 10.2 25.3L 10.2 24.1L 6.8 24.1ZM 15.3 20.7L 11.4 20.7L 11.4 25.3L 15.3 25.3L 15.3 20.7Z"/>
</defs>
</svg>
