<?xml version="1.0" encoding="UTF-8"?>
<svg width="51px" height="51px" viewBox="0 0 51 51" version="1.1" xmlns="http://www.w3.org/2000/svg" xmlns:xlink="http://www.w3.org/1999/xlink">
    <!-- Generator: Sketch 41.2 (35397) - http://www.bohemiancoding.com/sketch -->
    <title>Rectangle-path@2x</title>
    <desc>Created with Sketch.</desc>
    <defs></defs>
    <g id="Page-1" stroke="#A30F36" stroke-width="0.7" fill="none" fill-rule="evenodd">
        <g id="Artboard" transform="translate(-163.000000, -286.000000)" fill="#010202">
            <g id="Иконки" transform="translate(2.000000, 1.000000)">
                <path d="M174.1,299.9 L179.1,299.9 C180,299 181.1,298.2 182.4,297.7 C183.7,297.2 185.2,296.9 186.8,296.9 C188.4,296.9 189.8,297.2 191.2,297.7 C192.5,298.2 193.6,299 194.5,299.9 L199.5,299.9 L200.1,299.9 L200.1,300.5 L200.1,322.9 L200.1,323.5 L173.5,323.5 L173.5,322.9 L173.5,300.5 L173.5,299.9 L174.1,299.9 L174.1,299.9 Z M193.4,310.8 L180.2,310.8 L180.2,311.7 L193.4,311.7 L193.4,310.8 L193.4,310.8 Z M180.3,310 L193.5,310 L193.5,308.8 L180.3,308.8 L180.3,310 L180.3,310 Z M181,299.9 L192.8,299.9 C192.2,299.5 191.6,299.1 190.8,298.8 C189.6,298.3 188.3,298 186.9,298 C185.5,298 184.2,298.3 183,298.8 C182.2,299.1 181.5,299.4 181,299.9 L181,299.9 Z M187.6,301.1 L187.6,307.7 L194,307.7 L194.6,307.7 L194.6,308.3 L194.6,322.3 L198.9,322.3 L198.9,301.1 L187.6,301.1 L187.6,301.1 Z M186,307.6 L186,301 L174.7,301 L174.7,322.2 L179,322.2 L179,308.2 L179,307.6 L179.6,307.6 L186,307.6 L186,307.6 Z M184.3,316.4 L189.4,316.4 L190,316.4 L190,316.8 L193.4,316.8 L193.4,315.9 L180.2,315.9 L180.2,316.8 L183.6,316.8 L183.6,316.4 L184.3,316.4 L184.3,316.4 Z M190,317.6 L190,318.5 L193.4,318.5 L193.4,317.6 L190,317.6 L190,317.6 Z M190,319.3 L190,320.2 L193.4,320.2 L193.4,319.3 L190,319.3 L190,319.3 Z M190,321 L190,322.2 L193.4,322.2 L193.4,321 L190,321 L190,321 Z M193.4,315.1 L193.4,314.2 L180.2,314.2 L180.2,315.1 L193.4,315.1 L193.4,315.1 Z M193.4,313.4 L193.4,312.5 L180.2,312.5 L180.2,313.4 L193.4,313.4 L193.4,313.4 Z M180.3,317.6 L180.3,318.5 L183.7,318.5 L183.7,317.6 L180.3,317.6 L180.3,317.6 Z M180.3,319.3 L180.3,320.2 L183.7,320.2 L183.7,319.3 L180.3,319.3 L180.3,319.3 Z M180.3,321 L180.3,322.2 L183.7,322.2 L183.7,321 L180.3,321 L180.3,321 Z M188.8,317.6 L184.9,317.6 L184.9,322.2 L188.8,322.2 L188.8,317.6 Z" id="Shape"></path>
            </g>
        </g>
    </g>
</svg>