<svg width="27" height="27" viewBox="0 0 27 27" version="1.1" xmlns="http://www.w3.org/2000/svg" xmlns:xlink="http://www.w3.org/1999/xlink" xmlns:figma="http://www.figma.com/figma/ns">
<title>lowbuildings</title>
<desc>Created using Figma</desc>
<g id="Canvas" transform="translate(74 139)" figma:type="canvas">
<g id="lowbuildings" style="mix-blend-mode:normal;" figma:type="frame">
<g id="Rectangle 3" style="mix-blend-mode:normal;" figma:type="rounded-rectangle">
<use xlink:href="#path0_fill" transform="translate(-71 -130)" fill="#D0889A" style="mix-blend-mode:normal;"/>
</g>
<g id="Vector 3" style="mix-blend-mode:normal;" figma:type="vector">
<use xlink:href="#path1_fill" transform="translate(-71 -137.5)" fill="#D0889A" style="mix-blend-mode:normal;"/>
</g>
<g id="Shape" style="mix-blend-mode:normal;" figma:type="vector">
<use xlink:href="#path2_fill" transform="translate(-74 -139)" fill="#A30F36" style="mix-blend-mode:normal;"/>
</g>
</g>
</g>
<defs>
<path id="path0_fill" d="M 0 0L 20 0L 20 16L 0 16L 0 0Z"/>
<path id="path1_fill" d="M 10 0L 0.5 7.5L 0 8L 20.5 8L 10 0Z"/>
<path id="path2_fill" fill-rule="evenodd" d="M 26.6 26.6L 3.8147e-07 26.6L 3.8147e-07 25L 1.2 25L 1.2 19.8L 0.2 19.8C 0.2 19.2 0.3 18.7 0.5 18.2C 0.8 17.6 1.1 17.4 1.5 17.1L 2.5 16.4L 2.5 11.1L 1.3 11.1C 1.3 10.5 1.4 9.90001 1.7 9.30001C 2.1 8.50001 2.5 8.20001 3.2 7.80001L 13.4 3.05176e-06L 23.6 7.9C 24.2 8.3 24.5 8.60001 24.9 9.30001C 25.2 9.80001 25.3 10.4 25.3 11.1L 24.1 11.1L 24.1 25L 26.6 25L 26.6 26.6ZM 20 11.4L 15 11.4L 15 15.1L 20 15.1L 20 11.4ZM 20 19.3L 15 19.3L 15 23L 20 23L 20 19.3ZM 18.8 20.5L 16.3 20.5L 16.3 21.8L 18.8 21.8L 18.8 20.5ZM 18.8 12.6L 16.3 12.6L 16.3 13.9L 18.8 13.9L 18.8 12.6ZM 11.7 11.4L 11.7 15.1L 7.2 15.1L 9.6 16.9L 22.5 16.9L 22.5 10.2L 4.2 10.2L 4.2 15.2L 5.8 14L 6.7 14.7L 6.7 11.3C 8.4 11.4 10 11.4 11.7 11.4ZM 10.5 12.6L 8 12.6L 8 13.9L 10.5 13.9L 10.5 12.6ZM 10.2 25L 22.5 25L 22.5 18.1L 10.8 18.1C 10.8 18.1 10.8 18.2 10.9 18.2C 11.1 18.7 11.2 19.2 11.2 19.8L 10.2 19.8L 10.2 25ZM 3.9 25L 3.9 20.5C 3.9 19.5 4.7 18.6 5.8 18.6C 6.8 18.6 7.7 19.4 7.7 20.5L 7.7 25L 8.7 25L 8.7 18.2L 5.9 16.1L 3 18.2L 3 25L 3.9 25ZM 6.4 25L 6.4 20.5C 6.4 20.1 6.1 19.8 5.7 19.8C 5.3 19.8 5 20.1 5 20.5L 5 25L 6.4 25ZM 4.3 9L 22.4 9L 13.4 2L 4.3 9Z"/>
</defs>
</svg>
