<?xml version="1.0" encoding="UTF-8"?>
<svg width="52px" height="51px" viewBox="0 0 52 51" version="1.1" xmlns="http://www.w3.org/2000/svg" xmlns:xlink="http://www.w3.org/1999/xlink">
    <!-- Generator: Sketch 41.2 (35397) - http://www.bohemiancoding.com/sketch -->
    <title>Rectangle-path@2x</title>
    <desc>Created with Sketch.</desc>
    <defs></defs>
    <g id="Page-1" stroke="#A30F36" stroke-width="0.8" fill="none" fill-rule="evenodd">
        <g id="Artboard" transform="translate(-2.000000, -158.000000)" fill="#010202">
            <g id="Иконки" transform="translate(2.000000, 1.000000)">
                <g id="Group">
                    <path d="M39.2,195.9 L12.6,195.9 L12.6,194.3 L13.8,194.3 L13.8,189.1 L12.8,189.1 C12.8,188.5 12.9,188 13.1,187.5 C13.4,186.9 13.7,186.7 14.1,186.4 L15.1,185.7 L15.1,180.4 L13.9,180.4 C13.9,179.8 14,179.2 14.3,178.6 C14.7,177.8 15.1,177.5 15.8,177.1 L26,169.3 L36.2,177.2 C36.8,177.6 37.1,177.9 37.5,178.6 C37.8,179.1 37.9,179.7 37.9,180.4 L36.7,180.4 L36.7,194.3 L39.2,194.3 L39.2,195.9 L39.2,195.9 Z M32.6,180.7 L27.6,180.7 L27.6,184.4 L32.6,184.4 L32.6,180.7 L32.6,180.7 Z M32.6,188.6 L27.6,188.6 L27.6,192.3 L32.6,192.3 L32.6,188.6 L32.6,188.6 Z M31.4,189.8 L28.9,189.8 L28.9,191.1 L31.4,191.1 L31.4,189.8 L31.4,189.8 Z M31.4,181.9 L28.9,181.9 L28.9,183.2 L31.4,183.2 L31.4,181.9 L31.4,181.9 Z M24.3,180.7 L24.3,184.4 L19.8,184.4 L22.2,186.2 L35.1,186.2 L35.1,179.5 L16.8,179.5 L16.8,184.5 L18.4,183.3 L19.3,184 L19.3,180.6 C21,180.7 22.6,180.7 24.3,180.7 L24.3,180.7 Z M23.1,181.9 L20.6,181.9 L20.6,183.2 L23.1,183.2 L23.1,181.9 L23.1,181.9 Z M22.8,194.3 L35.1,194.3 L35.1,187.4 L23.4,187.4 C23.4,187.4 23.4,187.5 23.5,187.5 C23.7,188 23.8,188.5 23.8,189.1 L22.8,189.1 L22.8,194.3 L22.8,194.3 Z M16.5,194.3 L16.5,189.8 C16.5,188.8 17.3,187.9 18.4,187.9 C19.4,187.9 20.3,188.7 20.3,189.8 L20.3,194.3 L21.3,194.3 L21.3,187.5 L18.5,185.4 L15.6,187.5 L15.6,194.3 L16.5,194.3 L16.5,194.3 Z M19,194.3 L19,189.8 C19,189.4 18.7,189.1 18.3,189.1 C17.9,189.1 17.6,189.4 17.6,189.8 L17.6,194.3 L19,194.3 L19,194.3 Z M16.9,178.3 L35,178.3 L26,171.3 L16.9,178.3 Z" id="Shape"></path>
                </g>
            </g>
        </g>
    </g>
</svg>