<?xml version="1.0" encoding="UTF-8"?>
<svg width="66px" height="66px" viewBox="0 0 66 66" version="1.1" xmlns="http://www.w3.org/2000/svg" xmlns:xlink="http://www.w3.org/1999/xlink">
    <!-- Generator: Sketch 41.2 (35397) - http://www.bohemiancoding.com/sketch -->
    <title>Slice Copy 6</title>
    <desc>Created with Sketch.</desc>
    <defs></defs>
    <g id="Page-1" stroke="none" stroke-width="1" fill="none" fill-rule="evenodd">
        <g id="Производственная-база" transform="translate(-484.000000, -166.000000)">
            <polyline id="Fill-68" fill="#8D1736" points="493.014 201.882 522.149 172.748 540.559 191.158 540.559 212.607 522.149 231.016 493.014 201.882"></polyline>
            <polygon id="Fill-69" fill="#1A1918" points="539.155 231.23 540.558 231.23 540.558 172.786 539.155 172.786"></polygon>
            <polygon id="Fill-113" fill="#FFFFFF" points="516.127 201.495 523.144 201.86 524.204 202.993 524.222 214.578 523.308 215.564 516.292 215.09 516.292 216.953 534.309 218.342 534.236 216.405 527.073 215.857 526.086 214.541 526.086 203.176 527.055 202.152 534.474 202.481 534.529 200.434 516.146 199.557"></polygon>
            <polygon id="Stroke-114" stroke="#8D1736" stroke-width="0.283" stroke-linecap="round" stroke-linejoin="round" points="516.127 201.495 523.144 201.86 524.204 202.993 524.222 214.578 523.308 215.564 516.292 215.09 516.292 216.953 534.309 218.342 534.236 216.405 527.073 215.857 526.086 214.541 526.086 203.176 527.055 202.152 534.474 202.481 534.529 200.434 516.146 199.557"></polygon>
            <polygon id="Fill-115" fill="#FFFFFF" points="529.257 197.729 529.185 204.929 529.988 205.916 536.092 206.317 514.236 216.405 507.073 215.857 506.086 214.541 506.086 203.176 507.055 202.152 509.031 202.24 514.474 202.481"></polygon>
            <polygon id="Stroke-116" stroke="#8D1736" stroke-width="0.283" stroke-linecap="round" stroke-linejoin="round" points="529.257 197.729 529.185 204.929 529.988 205.916 536.092 206.317 514.236 216.405 507.073 215.857 506.086 214.541 506.086 203.176 507.055 202.152 509.031 202.24 514.474 202.481"></polygon>
            <polygon id="Fill-117" fill="#FFFFFF" points="514.309 218.342 536.093 207.852 536.092 206.317 514.236 216.405"></polygon>
            <polygon id="Stroke-118" stroke="#8D1736" stroke-width="0.283" stroke-linecap="round" stroke-linejoin="round" points="514.309 218.342 536.093 207.852 536.092 206.317 514.236 216.405"></polygon>
            <polygon id="Fill-119" fill="#FFFFFF" points="514.529 200.434 536.422 193.453 536.422 195.207 529.257 197.729 514.474 202.481"></polygon>
            <polygon id="Stroke-120" stroke="#8D1736" stroke-width="0.283" stroke-linecap="round" stroke-linejoin="round" points="514.529 200.434 536.422 193.453 536.422 195.207 529.257 197.729 514.474 202.481"></polygon>
            <polygon id="Fill-121" fill="#FFFFFF" points="496.146 199.557 521.073 192.831 536.422 193.453 514.529 200.434"></polygon>
            <polygon id="Stroke-122" stroke="#8D1736" stroke-width="0.283" stroke-linecap="round" stroke-linejoin="round" points="496.146 199.557 521.073 192.831 536.422 193.453 514.529 200.434"></polygon>
            <polygon id="Fill-123" fill="#FFFFFF" points="516.292 215.09 524.218 212.018 524.222 214.578 523.308 215.564"></polygon>
            <polygon id="Stroke-124" stroke="#8D1736" stroke-width="0.283" stroke-linecap="round" stroke-linejoin="round" points="516.292 215.09 524.218 212.018 524.222 214.578 523.308 215.564"></polygon>
            <polygon id="Fill-125" fill="#FFFFFF" points="549.185 204.929 526.086 214.541 527.073 215.857 549.988 205.916"></polygon>
            <polygon id="Stroke-126" stroke="#8D1736" stroke-width="0.283" stroke-linecap="round" stroke-linejoin="round" points="549.185 204.929 526.086 214.541 527.073 215.857 549.988 205.916"></polygon>
            <polygon id="Fill-127" fill="#FFFFFF" points="528.812 202.23 526.086 203.176 527.055 202.152"></polygon>
            <polygon id="Stroke-128" stroke="#8D1736" stroke-width="0.283" stroke-linecap="round" stroke-linejoin="round" points="528.812 202.23 526.086 203.176 527.055 202.152"></polygon>
        </g>
    </g>
</svg>