<?xml version="1.0" encoding="UTF-8"?>
<svg width="66px" height="66px" viewBox="0 0 66 66" version="1.1" xmlns="http://www.w3.org/2000/svg" xmlns:xlink="http://www.w3.org/1999/xlink">
    <!-- Generator: Sketch 41.2 (35397) - http://www.bohemiancoding.com/sketch -->
    <title>Slice Copy</title>
    <desc>Created with Sketch.</desc>
    <defs></defs>
    <g id="Page-1" stroke="none" stroke-width="1" fill="none" fill-rule="evenodd">
        <g id="Производственная-база" transform="translate(-239.000000, -79.000000)">
            <polyline id="Fill-78" fill="#8D1736" points="248.694 111.137 277.828 82.002 296.238 100.412 296.238 121.861 277.828 140.271 248.694 111.137"></polyline>
            <polygon id="Fill-79" fill="#1A1918" points="294.835 140.484 296.238 140.484 296.238 82.04 294.835 82.04"></polygon>
            <path d="M262.147,106.868 L257.687,107.054 L257.707,101.899 L262.107,101.512 L262.147,106.868 Z M265.531,99.611 L254.665,100.809 L254.665,111.272 L265.65,111.226 L265.531,99.611 Z" id="Fill-80" fill="#FFFFFF"></path>
            <path d="M262.147,106.868 L257.687,107.054 L257.707,101.899 L262.107,101.512 L262.147,106.868 Z M265.531,99.611 L254.665,100.809 L254.665,111.272 L265.65,111.226 L265.531,99.611 Z" id="Stroke-81" stroke="#8D1736" stroke-width="0.567"></path>
            <path d="M266.844,99.488 L266.884,111.18 L280.656,111.149 L280.516,98.105 L266.844,99.488 Z M270.744,106.51 L270.784,100.749 L276.286,100.265 L276.276,106.28 L270.744,106.51 Z" id="Fill-82" fill="#FFFFFF"></path>
            <path d="M266.844,99.488 L266.884,111.18 L280.656,111.149 L280.516,98.105 L266.844,99.488 Z M270.744,106.51 L270.784,100.749 L276.286,100.265 L276.276,106.28 L270.744,106.51 Z" id="Stroke-83" stroke="#8D1736" stroke-width="0.567"></path>
            <polygon id="Fill-84" fill="#8D1736" points="265.551 112.24 254.685 112.286 254.526 122.856 257.663 123.155 262.111 123.579 265.65 123.916"></polygon>
            <polygon id="Stroke-85" stroke="#8D1736" stroke-width="0.567" points="265.551 112.24 254.685 112.286 254.526 122.856 257.663 123.155 262.111 123.579 265.65 123.916"></polygon>
            <path d="M266.893,112.333 L266.814,123.986 L280.625,125.477 L280.535,112.371 L266.893,112.333 Z M270.926,119.743 L270.906,114.051 L276.23,114.074 L276.201,119.966 L270.926,119.743 Z" id="Fill-86" fill="#FFFFFF"></path>
            <path d="M266.893,112.333 L266.814,123.986 L280.625,125.477 L280.535,112.371 L266.893,112.333 Z M270.926,119.743 L270.906,114.051 L276.23,114.074 L276.201,119.966 L270.926,119.743 Z" id="Stroke-87" stroke="#8D1736" stroke-width="0.567"></path>
            <path d="M281.77,98.251 L281.75,111.126 L291.372,111.318 L291.322,103.029 L281.77,98.251 Z M285.688,106.879 L284.004,106.514 L283.997,106.08 L284.005,106.082 L284.007,100.964 L285.738,101.794 L285.688,106.879 Z M289.045,107.239 L289.053,103.176 L290.17,103.704 L290.098,107.801 L289.044,107.563 L289.045,107.239 Z" id="Fill-88" fill="#FFFFFF"></path>
            <path d="M281.77,98.251 L281.75,111.126 L291.372,111.318 L291.322,103.029 L281.77,98.251 Z M285.688,106.879 L284.004,106.514 L283.997,106.08 L284.005,106.082 L284.007,100.964 L285.738,101.794 L285.688,106.879 Z M289.045,107.239 L289.053,103.176 L290.17,103.704 L290.098,107.801 L289.044,107.563 L289.045,107.239 Z" id="Stroke-89" stroke="#8D1736" stroke-width="0.567"></path>
            <path d="M285.782,118.898 L284.1,119.396 L284.021,113.943 L285.792,113.82 L285.782,118.898 Z M291.402,112.248 L281.809,112.44 L281.809,125.299 L291.381,120.491 L291.402,112.248 Z M289.076,117.523 L289.076,113.521 L290.211,113.467 L290.23,117.523 L289.076,117.915 L289.076,117.523 Z" id="Fill-90" fill="#FFFFFF"></path>
            <path d="M285.782,118.898 L284.1,119.396 L284.021,113.943 L285.792,113.82 L285.782,118.898 Z M291.402,112.248 L281.809,112.44 L281.809,125.299 L291.381,120.491 L291.402,112.248 Z M289.076,117.523 L289.076,113.521 L290.211,113.467 L290.23,117.523 L289.076,117.915 L289.076,117.523 Z" id="Stroke-91" stroke="#8D1736" stroke-width="0.567"></path>
            <polygon id="Fill-92" fill="#FFFFFF" points="288.931 117.96 288.935 113.528 289.178 113.516 289.188 117.877"></polygon>
            <polygon id="Stroke-93" stroke="#8D1736" stroke-width="0.567" points="288.931 117.96 288.935 113.528 289.178 113.516 289.188 117.877"></polygon>
            <polygon id="Fill-94" fill="#FFFFFF" points="284.165 113.933 284.242 119.354 283.962 119.438 283.881 113.953"></polygon>
            <polygon id="Stroke-95" stroke="#8D1736" stroke-width="0.567" points="284.165 113.933 284.242 119.354 283.962 119.438 283.881 113.953"></polygon>
            <polyline id="Fill-96" fill="#FFFFFF" points="266.844 99.488 254.665 100.809 254.665 111.272 266.884 111.18 280.656 111.149 280.516 98.105 266.844 99.488"></polyline>
            <polyline id="Fill-97" fill="#FFFFFF" points="266.893 112.333 254.685 112.286 254.526 122.856 257.663 123.155 262.111 123.579 266.814 123.986 280.625 125.477 280.535 112.371 266.893 112.333"></polyline>
            <polyline id="Fill-98" fill="#FFFFFF" points="281.77 98.251 281.75 111.126 291.372 111.318 291.322 103.029 281.77 98.251"></polyline>
            <polyline id="Fill-99" fill="#FFFFFF" points="291.402 112.248 281.809 112.44 281.809 125.299 291.381 120.491 291.402 112.248"></polyline>
            <polyline id="Fill-100" fill="#FFFFFF" points="288.931 117.96 288.935 113.528 289.178 113.516 289.188 117.877 288.931 117.96"></polyline>
            <polyline id="Fill-101" fill="#FFFFFF" points="284.165 113.933 284.242 119.354 283.962 119.438 283.881 113.953 284.165 113.933"></polyline>
            <path d="M254.462,117.571 L281.809,118.87 L292.429,116.092 M254.491,106.04 L281.809,104.689 L292.461,107.472" id="Stroke-102" stroke="#8D1736" stroke-width="1.134"></path>
        </g>
    </g>
</svg>