<?xml version="1.0" encoding="UTF-8"?>
<svg width="51px" height="51px" viewBox="0 0 51 51" version="1.1" xmlns="http://www.w3.org/2000/svg" xmlns:xlink="http://www.w3.org/1999/xlink">
    <!-- Generator: Sketch 41.2 (35397) - http://www.bohemiancoding.com/sketch -->
    <title>Rectangle-path@2x</title>
    <desc>Created with Sketch.</desc>
    <defs></defs>
    <g id="Page-1" stroke="#A30F36" stroke-width="0.7" fill="none" fill-rule="evenodd">
        <g id="Artboard" transform="translate(-473.000000, -114.000000)">
            <g id="Иконки" transform="translate(2.000000, 1.000000)">
                <path d="M484.6,132.8 L508,132.8 L502.7,128.7 L496.4,126.5 L490.1,128.7 L484.6,132.8 L484.6,132.8 Z M502,142.3 L504.7,145.3 L507.4,142.3 L502,142.3 L502,142.3 Z M505.5,146.2 L508,143.5 L508,149 L505.5,146.2 L505.5,146.2 Z M507.3,149.9 L504.8,147.1 L502.3,149.9 L507.3,149.9 L507.3,149.9 Z M503.9,146.2 L501.4,148.9 L501.4,143.4 L503.9,146.2 L503.9,146.2 Z M501.5,141.1 L508,141.1 L508,134.5 L501.5,134.5 L501.5,141.1 L501.5,141.1 Z M485.2,142.3 L487.9,145.3 L490.6,142.3 L485.2,142.3 L485.2,142.3 Z M488.7,146.2 L491.2,143.5 L491.2,149 L488.7,146.2 L488.7,146.2 Z M490.4,149.9 L487.9,147.1 L485.4,149.9 L490.4,149.9 L490.4,149.9 Z M487.1,146.2 L484.6,148.9 L484.6,143.4 L487.1,146.2 L487.1,146.2 Z M484.6,141.1 L491.1,141.1 L491.1,134.5 L484.6,134.5 L484.6,141.1 L484.6,141.1 Z M509.6,151.5 L483,151.5 L483,132.1 L489.2,127.4 L496.3,124.9 L503.4,127.4 L509.6,132.1 L509.6,151.5 L509.6,151.5 Z M492.8,134.5 L492.8,149.9 L499.9,149.9 L499.9,134.5 L492.8,134.5 Z" id="Shape" fill="#010202"></path>
                <path d="M491.8,159.9 L492.1,159.8 C492.1,160 492.2,160.1 492.2,160.1 C492.3,160.2 492.4,160.2 492.5,160.2 C492.6,160.2 492.7,160.2 492.8,160.1 C492.9,160 492.9,160 492.9,159.9 C492.9,159.8 492.9,159.7 492.8,159.7 C492.8,159.7 492.7,159.6 492.5,159.6 C492.3,159.5 492.1,159.5 492,159.4 L491.8,159.2 C491.8,159.1 491.7,159 491.7,158.9 C491.7,158.7 491.8,158.6 491.9,158.4 C492,158.3 492.2,158.2 492.4,158.2 C492.5,158.2 492.7,158.2 492.8,158.3 C492.9,158.3 493,158.4 493,158.5 C493.1,158.6 493.1,158.7 493.1,158.9 L492.8,159 C492.8,158.8 492.6,158.6 492.4,158.6 C492.3,158.6 492.2,158.6 492.1,158.7 C492,158.8 492,158.8 492,158.9 C492,159 492,159 492.1,159.1 C492.1,159.1 492.2,159.2 492.4,159.2 C492.7,159.3 492.8,159.3 492.9,159.4 C493,159.4 493,159.5 493.1,159.6 C493.1,159.7 493.2,159.8 493.2,159.9 C493.2,160.1 493.1,160.3 493,160.4 C492.9,160.5 492.7,160.6 492.5,160.6 C492.1,160.6 491.9,160.4 491.8,159.9 L491.8,159.9 Z M494.3,160.2 L494.3,160.5 L494.1,160.5 C494,160.5 493.9,160.5 493.8,160.4 C493.7,160.4 493.7,160.3 493.7,160.2 L493.7,159.8 L493.7,158.5 L493.5,158.5 L493.5,158.2 L493.7,158.2 L493.7,157.7 L494,157.5 L494,158.3 L494.3,158.3 L494.3,158.6 L494,158.6 L494,159.9 L494,160.1 C494,160.2 494.1,160.2 494.1,160.2 C494.2,160.3 494.3,160.2 494.3,160.2 L494.3,160.2 Z M495.8,160.3 C495.7,160.4 495.6,160.5 495.5,160.5 C495.4,160.6 495.3,160.6 495.2,160.6 C495,160.6 494.9,160.5 494.8,160.4 C494.7,160.3 494.6,160.1 494.6,159.9 C494.6,159.8 494.6,159.7 494.7,159.6 C494.8,159.5 494.8,159.4 494.9,159.4 C495,159.3 495.1,159.3 495.3,159.3 C495.5,159.3 495.7,159.2 495.8,159.2 L495.8,159.1 C495.8,158.9 495.8,158.8 495.7,158.8 C495.6,158.7 495.5,158.7 495.4,158.7 C495.3,158.7 495.2,158.7 495.1,158.8 C495,158.9 495,159 494.9,159.1 L494.6,159 C494.6,158.8 494.7,158.6 494.9,158.5 C495,158.4 495.2,158.3 495.5,158.3 C495.7,158.3 495.8,158.3 495.9,158.4 C496,158.5 496.1,158.6 496.1,158.7 L496.1,159.2 L496.1,159.7 L496.1,160.4 C496.1,160.5 496.1,160.6 496.2,160.7 L495.9,160.7 C495.8,160.5 495.8,160.4 495.8,160.3 L495.8,160.3 Z M495.8,159.5 C495.7,159.6 495.5,159.6 495.3,159.6 C495.2,159.6 495.1,159.6 495,159.7 C494.9,159.7 494.9,159.8 494.9,159.8 L494.9,160 C494.9,160.1 494.9,160.2 495,160.3 C495.1,160.4 495.2,160.4 495.3,160.4 C495.4,160.4 495.5,160.4 495.6,160.3 C495.7,160.2 495.8,160.2 495.8,160.1 C495.8,160 495.9,159.9 495.9,159.7 L495.9,159.5 L495.8,159.5 Z M496.8,160.6 L496.5,160.6 L496.5,157.6 L496.8,157.6 L496.8,158.7 C496.9,158.6 496.9,158.5 497,158.5 C497.1,158.5 497.2,158.4 497.3,158.4 C497.4,158.4 497.6,158.4 497.7,158.5 C497.8,158.6 497.9,158.7 498,158.9 C498.1,159.1 498.1,159.3 498.1,159.5 C498.1,159.9 498,160.2 497.9,160.4 C497.7,160.6 497.6,160.7 497.4,160.7 C497.3,160.7 497.2,160.7 497.1,160.6 C497,160.5 496.9,160.5 496.9,160.4 L496.9,160.6 L496.8,160.6 Z M496.8,159.5 C496.8,159.7 496.8,159.9 496.9,160 C496.9,160.1 497,160.2 497.1,160.3 C497.2,160.4 497.3,160.4 497.4,160.4 C497.5,160.4 497.6,160.3 497.7,160.2 C497.8,160.1 497.8,159.8 497.8,159.6 C497.8,159.3 497.8,159.1 497.7,159 C497.6,158.9 497.5,158.8 497.4,158.8 C497.3,158.8 497.2,158.9 497.1,159 C496.9,159 496.8,159.2 496.8,159.5 L496.8,159.5 Z M498.5,160.6 L498.5,157.6 L498.8,157.6 L498.8,160.6 L498.5,160.6 L498.5,160.6 Z M500.5,159.9 L500.8,159.9 C500.7,160.1 500.7,160.3 500.5,160.4 C500.4,160.5 500.2,160.6 500,160.6 C499.7,160.6 499.5,160.5 499.4,160.3 C499.2,160.1 499.2,159.8 499.2,159.5 C499.2,159.1 499.3,158.8 499.4,158.6 C499.6,158.4 499.8,158.3 500,158.3 C500.2,158.3 500.4,158.4 500.6,158.6 C500.8,158.8 500.8,159.1 500.8,159.4 L500.8,159.5 L499.5,159.5 C499.5,159.7 499.6,159.9 499.7,160.1 C499.8,160.2 499.9,160.3 500.1,160.3 C500.2,160.3 500.4,160.2 500.5,159.9 L500.5,159.9 Z M499.5,159.3 L500.5,159.3 C500.5,159.1 500.4,159 500.4,158.9 C500.3,158.8 500.2,158.7 500,158.7 C499.9,158.7 499.7,158.8 499.6,158.9 C499.5,158.9 499.5,159.1 499.5,159.3 Z" id="Shape" fill="#D2D1D1"></path>
            </g>
        </g>
    </g>
</svg>