<?xml version="1.0" encoding="utf-8"?>
<svg xmlns="http://www.w3.org/2000/svg" xmlns:xlink="http://www.w3.org/1999/xlink" version="1.1" style="width:0;height:0;position:absolute;overflow:hidden;">
  <defs>
    <symbol viewBox="0 0 1169.5 1169" aria-labelledby="cesi-bootstrap-earphone-title" id="si-bootstrap-earphone">
      <title id="cesi-bootstrap-earphone-title">icon earphone</title>
      <path d="M1.667 178l162-162q17-17 40-14t37 22l139 194q14 20 11 44.5t-20 41.5l-119 118q102 142 228 268t267 227l119-118q17-17 42.5-19t44.5 12l192 136q19 14 22.5 37.5t-13.5 40.5l-163 162q-3 1-9.5 1t-29.5-2-47.5-6-62.5-14.5-77.5-26.5-90-42.5-101.5-60-111-83-119-108.5q-74-74-133.5-150.5t-94.5-138.5-60-119.5-34.5-100-15-74.5-4.5-48z"/>
    </symbol>
<symbol viewBox="0 0 809.6669921875 810" aria-labelledby="hgsi-entypo-phone-title" id="si-entypo-phone"><title id="hgsi-entypo-phone-title">icon phone</title><path d="M461.667 460c108-108 147.333-176.667 118-206l-8-8c-20-20-33.667-36-41-48-7.333-12-8.667-30-4-54s21-53.333 49-88c13.333-16 25.667-29 37-39 11.333-10 23-15.333 35-16 12-.667 22-1 30-1s17.667 4.333 29 13c11.333 8.667 19.333 14.667 24 18 4.667 3.333 13.333 11.667 26 25s19.667 20.667 21 22c32 32 30 96.667-6 194s-104 195.333-204 294c-100 100-198.333 168.333-295 205s-161 39-193 7c-1.333-1.333-9-8.667-23-22s-22.333-21.667-25-25c-2.667-3.333-8.667-11.333-18-24S0 684 .667 676c.667-8 1.333-18 2-30s5.667-23.667 15-35c9.333-11.333 22-23.667 38-37 28-22.667 51.333-38.333 70-47 18.667-8.667 36.667-9.333 54-2s29 13.333 35 18 19 17 39 37c29.333 29.333 98.667-10.667 208-120"/></symbol>
<symbol viewBox="0 0 31.599998474121094 27.200000762939453" aria-labelledby="bzsi-evil-sc-telegram-title" id="si-evil-sc-telegram"><title id="bzsi-evil-sc-telegram-title">icon sc-telegram</title><path d="M28.6.6L.9 11.6c-.9.3-.8 1.6.1 1.9l7 2.2 2.8 8.8c.2.7 1.1.9 1.6.4l4.1-3.8 7.8 5.7c.6.4 1.4.1 1.6-.6L31.3 3c.3-1.7-1.2-3-2.7-2.4zM12.4 17.4l-.9 5.2-2-7.2L29 2.6 12.4 17.4z"/></symbol>
<symbol viewBox="0 0 29.200002670288086 23.900001525878906" aria-labelledby="cbsi-evil-sc-twitter-title" id="si-evil-sc-twitter"><title id="cbsi-evil-sc-twitter-title">icon sc-twitter</title><path d="M29.2 2.7c-1.1.5-2.2.8-3.5 1 1.2-.8 2.2-1.9 2.7-3.3-1.2.7-2.5 1.2-3.8 1.5C23.5.7 21.9 0 20.2 0c-3.3 0-6.1 2.7-6.1 6.1 0 .5.1.9.2 1.4-5-.2-9.5-2.7-12.5-6.3C1.3 1.9 1 2.9 1 4c0 2.1 1.1 4 2.7 5-1 0-1.9-.3-2.7-.8v.1c0 2.9 2.1 5.4 4.9 5.9-.5.1-1 .2-1.6.2-.4 0-.8 0-1.1-.1.8 2.4 3 4.2 5.7 4.2-2.1 1.6-4.7 2.6-7.5 2.6-.5 0-1 0-1.4-.1 2.4 1.9 5.6 2.9 9 2.9 11.1 0 17.2-9.2 17.2-17.2v-.8c1.2-.9 2.2-1.9 3-3.2z"/></symbol>
<symbol viewBox="0 0 33.900001525878906 19.099998474121094" aria-labelledby="cdsi-evil-sc-vk-title" id="si-evil-sc-vk"><title id="cdsi-evil-sc-vk-title">icon sc-vk</title><path fill-rule="evenodd" d="M16.3 18.8h2s.6-.1.9-.4c.3-.3.3-.9.3-.9s0-2.6 1.2-3c1.2-.4 2.8 2.6 4.4 3.7 1.2.9 2.1.7 2.1.7l4.4-.1s2.3-.1 1.2-2c-.1-.1-.6-1.3-3.3-3.8-2.8-2.6-2.4-2.1.9-6.6 2-2.7 2.8-4.3 2.6-5.1-.2-.7-1.7-.5-1.7-.5h-5s-.4-.1-.6.1c-.3.2-.4.5-.4.5s-.8 2.1-1.8 3.9C21.3 9 20.4 9.2 20.1 9c-.8-.5-.6-2.2-.6-3.3 0-3.6.6-5.1-1.1-5.5-.5-.1-.9-.2-2.3-.2-1.8 0-3.3 0-4.1.4-.6.3-1 .9-.7.9.3 0 1.1.2 1.5.7.4.9.4 2.4.4 2.4s.3 4.3-.7 4.8c-.7.4-1.6-.4-3.6-3.8-1-1.7-1.8-3.7-1.8-3.7s-.1-.4-.4-.6C6.4.9 5.9.8 5.9.8H1.2s-.7 0-1 .3c-.2.3 0 .8 0 .8s3.7 8.6 7.9 13c3.9 4.2 8.2 3.9 8.2 3.9z" clip-rule="evenodd"/></symbol>
<symbol viewBox="0 0 1024 1024" aria-labelledby="besi-flat-facebook-title" id="si-flat-facebook"><title id="besi-flat-facebook-title">icon facebook</title><path d="M928 1024H96c-51.2 0-96-44.8-96-96V96C0 44.8 44.8 0 96 0h825.6C979.2 0 1024 44.8 1024 96v825.6c0 57.6-44.8 102.4-96 102.4zM748.8 192C627.2 192 576 275.2 576 358.4V448h-64v128h64v384h128V576h128V448H704v-70.4c0-38.4 6.4-57.6 51.2-57.6H832V198.4s-38.4-6.4-83.2-6.4z"/></symbol>
<symbol viewBox="0 0 1024 1024" aria-labelledby="bqsi-flat-instagram-title" id="si-flat-instagram"><title id="bqsi-flat-instagram-title">icon instagram</title><path d="M928 0H96C44.8 0 0 44.8 0 96v825.6C0 979.2 44.8 1024 96 1024h825.6c57.6 0 96-44.8 96-96V96C1024 44.8 979.2 0 928 0zM512 313.6c108.8 0 198.4 89.6 198.4 198.4S620.8 710.4 512 710.4 313.6 620.8 313.6 512 403.2 313.6 512 313.6zm384 544c0 19.2-19.2 38.4-38.4 38.4H166.4c-19.2 0-38.4-19.2-38.4-38.4V448h89.6c-6.4 25.6-6.4 51.2-6.4 76.8 0 166.4 128 307.2 300.8 307.2s300.8-140.8 300.8-307.2c0-25.6-6.4-51.2-12.8-76.8h96v409.6zm0-576c0 19.2-19.2 38.4-38.4 38.4H742.4c-19.2 0-38.4-19.2-38.4-38.4V166.4c0-19.2 19.2-38.4 38.4-38.4h115.2c19.2 0 38.4 19.2 38.4 38.4v115.2z"/></symbol>
<symbol viewBox="0 0 864 1664" aria-labelledby="ilsi-awesome-facebook-title" id="si-awesome-facebook"><title id="ilsi-awesome-facebook-title">icon facebook</title><path d="M864 12v264H707q-86 0-116 36t-30 108v189h293l-39 296H561v759H255V905H0V609h255V391q0-186 104-288.5T636 0q147 0 228 12z"/></symbol>
<symbol viewBox="0 0 1536 1536" aria-labelledby="mssi-awesome-instagram-title" id="si-awesome-instagram"><title id="mssi-awesome-instagram-title">icon instagram</title><path d="M1024 768q0-106-75-181t-181-75-181 75-75 181 75 181 181 75 181-75 75-181zm138 0q0 164-115 279t-279 115-279-115-115-279 115-279 279-115 279 115 115 279zm108-410q0 38-27 65t-65 27-65-27-27-65 27-65 65-27 65 27 27 65zM768 138q-7 0-76.5-.5t-105.5 0-96.5 3-103 10T315 169q-50 20-88 58t-58 88q-11 29-18.5 71.5t-10 103-3 96.5 0 105.5.5 76.5-.5 76.5 0 105.5 3 96.5 10 103T169 1221q20 50 58 88t88 58q29 11 71.5 18.5t103 10 96.5 3 105.5 0 76.5-.5 76.5.5 105.5 0 96.5-3 103-10 71.5-18.5q50-20 88-58t58-88q11-29 18.5-71.5t10-103 3-96.5 0-105.5-.5-76.5.5-76.5 0-105.5-3-96.5-10-103T1367 315q-20-50-58-88t-88-58q-29-11-71.5-18.5t-103-10-96.5-3-105.5 0-76.5.5zm768 630q0 229-5 317-10 208-124 322t-322 124q-88 5-317 5t-317-5q-208-10-322-124T5 1085q-5-88-5-317t5-317q10-208 124-322T451 5q88-5 317-5t317 5q208 10 322 124t124 322q5 88 5 317z"/></symbol>
<symbol viewBox="0 0 1411.166748046875 1408" aria-labelledby="nvsi-awesome-location-arrow-title" id="si-awesome-location-arrow"><title id="nvsi-awesome-location-arrow-title">icon location-arrow</title><path d="M1402.333 93l-640 1280q-17 35-57 35-5 0-15-2-22-5-35.5-22.5t-13.5-39.5V768h-576q-22 0-39.5-13.5T3.333 719t4-42 29-30l1280-640q13-7 29-7 27 0 45 19 15 14 18.5 34.5t-6.5 39.5z"/></symbol>
<symbol viewBox="0 0 28 28" aria-labelledby="ausi-geom-geolocation-title" id="si-geom-geolocation"><title id="ausi-geom-geolocation-title">icon geolocation</title><path d="M0 16L28 0 12 28V16z"/></symbol>
<symbol viewBox="0 0 15.926363945007324 16.00657844543457" aria-labelledby="sdsi-icomoon-whatsapp-title" id="si-icomoon-whatsapp"><title id="sdsi-icomoon-whatsapp-title">icon whatsapp</title><path d="M13.6 2.332A7.869 7.869 0 0 0 7.991.007C3.622.007.066 3.563.066 7.935c0 1.397.366 2.763 1.059 3.963L0 16.007l4.203-1.103a7.929 7.929 0 0 0 3.787.966h.003c4.369 0 7.928-3.556 7.928-7.928a7.887 7.887 0 0 0-2.322-5.61zm-5.607 12.2a6.583 6.583 0 0 1-3.356-.92l-.241-.143-2.494.653.666-2.431-.156-.25a6.537 6.537 0 0 1-1.009-3.506 6.599 6.599 0 0 1 6.594-6.591c1.759 0 3.416.688 4.659 1.93a6.554 6.554 0 0 1 1.928 4.663c-.003 3.637-2.959 6.594-6.591 6.594zm3.613-4.937c-.197-.1-1.172-.578-1.353-.644s-.313-.1-.447.1c-.131.197-.512.644-.628.778-.116.13-.231.15-.428.05s-.838-.31-1.594-.984c-.588-.525-.987-1.175-1.103-1.372s-.013-.306.088-.403c.091-.088.197-.231.297-.347s.131-.197.197-.331c.066-.131.034-.247-.016-.347S6.172 5.02 6.01 4.623c-.159-.388-.325-.334-.447-.341-.116-.006-.247-.006-.378-.006s-.347.05-.528.247c-.181.197-.694.678-.694 1.653s.709 1.916.809 2.05c.1.13 1.397 2.134 3.384 2.99.472.204.841.326 1.128.42.475.15.906.128 1.247.078.381-.056 1.172-.478 1.338-.941s.166-.86.116-.941c-.047-.088-.178-.137-.378-.238z"/></symbol>
  </defs>
</svg>
