<?xml version="1.0" encoding="UTF-8"?>
<svg width="66px" height="66px" viewBox="0 0 66 66" version="1.1" xmlns="http://www.w3.org/2000/svg" xmlns:xlink="http://www.w3.org/1999/xlink">
    <!-- Generator: Sketch 41.2 (35397) - http://www.bohemiancoding.com/sketch -->
    <title>Slice Copy 4</title>
    <desc>Created with Sketch.</desc>
    <defs></defs>
    <g id="Page-1" stroke="none" stroke-width="1" fill="none" fill-rule="evenodd">
        <g id="Производственная-база" transform="translate(6.000000, -166.000000)">
            <polyline id="Fill-70" fill="#8D1736" points="5.676 201.882 34.809 172.748 53.22 191.158 53.22 212.607 34.81 231.016 5.676 201.882"></polyline>
            <polygon id="Fill-71" fill="#1A1918" points="51.816 231.23 53.219 231.23 53.219 172.786 51.816 172.786"></polygon>
            <path d="M0.049,207.775 L32.706,214.517 L31.734,209.01 C31.221,207.042 30.176,205.341 28.312,204.052 L18.806,197.349 C16.307,195.661 14.263,195.255 11.903,196.231 L3.661,199.544 C2.033,200.111 1.007,201.172 0.619,202.758 L0.049,207.775 Z" id="Fill-72" fill="#FFFFFF"></path>
            <path d="M0.049,207.775 L32.706,214.517 L31.734,209.01 C31.221,207.042 30.176,205.341 28.312,204.052 L18.806,197.349 C16.307,195.661 14.263,195.255 11.903,196.231 L3.661,199.544 C2.033,200.111 1.007,201.172 0.619,202.758 L0.049,207.775 Z" id="Stroke-73" stroke="#8D1736" stroke-width="0.567"></path>
            <path d="M32.706,214.517 L50.738,203.87 L50.02,199.225 C49.7,197.437 48.688,195.895 46.904,194.629 L38.17,188.485 C36.241,187.141 33.994,187.144 31.474,188.309 L13.243,195.29 L6.511,198.398 L11.903,195.855 C14.262,194.879 16.307,195.661 18.806,197.35 L28.312,204.052 C30.176,205.34 31.221,207.041 31.734,209.01 L32.706,214.517 Z" id="Fill-74" fill="#FFFFFF"></path>
            <path d="M32.706,214.517 L50.738,203.87 L50.02,199.225 C49.7,197.437 48.688,195.895 46.904,194.629 L38.17,188.485 C36.241,187.141 33.994,187.144 31.474,188.309 L13.243,195.29 L6.511,198.398 L11.903,195.855 C14.262,194.879 16.307,195.661 18.806,197.35 L28.312,204.052 C30.176,205.34 31.221,207.041 31.734,209.01 L32.706,214.517 Z" id="Stroke-75" stroke="#8D1736" stroke-width="0.567"></path>
            <path d="M13.847,195.017 L18.728,193.108 C20.675,192.414 22.65,192.783 24.653,194.206 L34.264,201.026 C36.044,202.117 37.289,204.236 37.603,206.191 L38.405,211.295 M20.001,192.629 L23.484,191.245 C25.432,190.551 27.406,190.508 29.409,191.931 L39.021,198.751 C40.801,199.842 42.045,201.961 42.359,203.916 L43.161,209.02 M26.1,190.639 L28.333,189.717 C30.28,189.023 32.255,188.98 34.258,190.403 L43.869,197.223 C45.649,198.315 46.894,200.433 47.208,202.388 L47.961,207.182" id="Stroke-76" stroke="#8D1736" stroke-width="0.567"></path>
            <polyline id="Fill-77" fill="#8D1736" points="18.033 204.748 11.527 203.631 11.485 210.136 18.054 211.492 18.033 204.748"></polyline>
        </g>
    </g>
</svg>