<?xml version="1.0" encoding="UTF-8"?>
<svg width="66px" height="66px" viewBox="0 0 66 66" version="1.1" xmlns="http://www.w3.org/2000/svg" xmlns:xlink="http://www.w3.org/1999/xlink">
    <!-- Generator: Sketch 41.2 (35397) - http://www.bohemiancoding.com/sketch -->
    <title>Slice Copy 2</title>
    <desc>Created with Sketch.</desc>
    <defs></defs>
    <g id="Page-1" stroke="none" stroke-width="1" fill="none" fill-rule="evenodd">
        <g id="Производственная-база" transform="translate(-484.000000, -79.000000)">
            <polyline id="Fill-103" fill="#8D1736" points="493.014 111.137 522.148 82.002 540.559 100.412 540.559 121.861 522.149 140.271 493.014 111.137"></polyline>
            <polygon id="Fill-104" fill="#1A1918" points="539.155 140.484 540.558 140.484 540.558 82.04 539.155 82.04"></polygon>
            <path d="M497.67,102.444 L497.615,119.536 L511.179,120.882 L511.18,101.244 L497.67,102.444 Z M532.611,116.841 C532.842,116.844 533.056,116.871 533.255,116.92 L533.619,116.964 L511.845,120.882 L528.651,117.969 L535.904,116.718 L535.904,116.207 L532.611,116.841 Z M517.007,112.36 L517.007,105.474 L521.279,105.707 L521.279,112.146 L517.007,112.36 Z M535.904,116.718 L535.904,103.898 L511.845,101.244 L511.845,120.882 L528.651,117.969 L528.651,118.076 L528.651,106.109 L532.108,106.298 L532.108,117.285 L535.904,116.718 Z M501.442,105.589 L506.342,105.371 L506.396,112.654 L501.581,112.557 L501.387,112.553 L501.442,105.589 Z" id="Fill-105" fill="#FFFFFF"></path>
            <path d="M497.67,102.444 L497.615,119.536 L511.179,120.882 L511.18,101.244 L497.67,102.444 Z M532.611,116.841 C532.842,116.844 533.056,116.871 533.255,116.92 L533.619,116.964 L511.845,120.882 L528.651,117.969 L535.904,116.718 L535.904,116.207 L532.611,116.841 Z M517.007,112.36 L517.007,105.474 L521.279,105.707 L521.279,112.146 L517.007,112.36 Z M535.904,116.718 L535.904,103.898 L511.845,101.244 L511.845,120.882 L528.651,117.969 L528.651,118.076 L528.651,106.109 L532.108,106.298 L532.108,117.285 L535.904,116.718 Z M501.442,105.589 L506.342,105.371 L506.396,112.654 L501.581,112.557 L501.387,112.553 L501.442,105.589 Z" id="Stroke-106" stroke="#8D1736" stroke-width="0.425"></path>
        </g>
    </g>
</svg>