<?xml version="1.0" encoding="UTF-8"?>
<svg width="66px" height="66px" viewBox="0 0 66 66" version="1.1" xmlns="http://www.w3.org/2000/svg" xmlns:xlink="http://www.w3.org/1999/xlink">
    <!-- Generator: Sketch 41.2 (35397) - http://www.bohemiancoding.com/sketch -->
    <title>Slice</title>
    <desc>Created with Sketch.</desc>
    <defs></defs>
    <g id="Page-1" stroke="none" stroke-width="1" fill="none" fill-rule="evenodd">
        <g id="Производственная-база" transform="translate(6.000000, -79.000000)">
            <polyline id="Fill-1" fill="#8D1736" points="5.675 111.137 34.809 82.002 53.219 100.412 53.219 121.861 34.81 140.271 5.675 111.137"></polyline>
            <polygon id="Fill-2" fill="#1A1918" points="51.816 140.484 53.219 140.484 53.219 82.04 51.816 82.04"></polygon>
            <path d="M10.331,102.444 L10.276,119.536 L23.84,120.882 L23.84,101.244 L10.331,102.444 Z M45.272,116.841 C45.503,116.844 45.717,116.871 45.916,116.92 L46.28,116.964 L46.906,117.331 L47.109,117.695 C47.794,118.611 47.835,120.186 47.167,122.035 C47.064,122.23 46.924,122.393 46.758,122.527 L46.477,122.714 C45.711,123.131 44.594,123.112 43.73,122.843 C43.487,122.714 43.304,122.532 43.169,122.313 L43.15,122.294 L43.142,122.267 C42.82,121.705 42.792,120.915 42.853,120.153 L35.216,119.311 L35.086,119.835 L34.796,120.69 L34.308,121.149 L33.361,121.332 L32.673,121.393 L32.888,122.598 L32.872,123.637 L32.643,124.95 L32.216,125.959 L31.681,126.714 L30.658,127.089 L29.192,127.227 L27.893,126.952 L27.038,126.326 L26.305,125.119 L26.228,123.653 L26.269,123.224 L19.509,122.213 L19.342,122.812 L18.975,123.637 L18.333,124.263 L17.646,124.584 L16.669,124.829 L15.859,124.874 L14.842,124.926 L8.047,128.924 L6.909,128.479 L13.293,120.659 L13.538,119.835 L24.506,120.882 L41.312,117.969 L48.565,116.718 L48.565,116.207 L45.272,116.841 Z M29.668,112.36 L29.668,105.474 L33.939,105.707 L33.939,112.146 L29.668,112.36 Z M48.565,116.718 L48.565,103.898 L24.506,101.244 L24.506,120.882 L41.312,117.969 L41.312,118.076 L41.312,106.109 L44.769,106.298 L44.769,117.285 L48.565,116.718 Z M14.103,105.589 L19.003,105.371 L19.057,112.654 L14.242,112.557 L14.048,112.553 L14.103,105.589 Z M14.439,124.233 L14.412,124.206 L13.95,123.744 L13.553,123.103 L12.652,122.98 L9.567,126.875 L9.619,126.895 L14.439,124.233 L14.439,124.233 Z" id="Fill-3" fill="#FFFFFF"></path>
            <path d="M10.331,102.444 L10.276,119.536 L23.84,120.882 L23.84,101.244 L10.331,102.444 Z M45.272,116.841 C45.503,116.844 45.717,116.871 45.916,116.92 L46.28,116.964 L46.906,117.331 L47.109,117.695 C47.794,118.611 47.835,120.186 47.167,122.035 C47.064,122.23 46.924,122.393 46.758,122.527 L46.477,122.714 C45.711,123.131 44.594,123.112 43.73,122.843 C43.487,122.714 43.304,122.532 43.169,122.313 L43.15,122.294 L43.142,122.267 C42.82,121.705 42.792,120.915 42.853,120.153 L35.216,119.311 L35.086,119.835 L34.796,120.69 L34.308,121.149 L33.361,121.332 L32.673,121.393 L32.888,122.598 L32.872,123.637 L32.643,124.95 L32.216,125.959 L31.681,126.714 L30.658,127.089 L29.192,127.227 L27.893,126.952 L27.038,126.326 L26.305,125.119 L26.228,123.653 L26.269,123.224 L19.509,122.213 L19.342,122.812 L18.975,123.637 L18.333,124.263 L17.646,124.584 L16.669,124.829 L15.859,124.874 L14.842,124.926 L8.047,128.924 L6.909,128.479 L13.293,120.659 L13.538,119.835 L24.506,120.882 L41.312,117.969 L48.565,116.718 L48.565,116.207 L45.272,116.841 Z M29.668,112.36 L29.668,105.474 L33.939,105.707 L33.939,112.146 L29.668,112.36 Z M48.565,116.718 L48.565,103.898 L24.506,101.244 L24.506,120.882 L41.312,117.969 L41.312,118.076 L41.312,106.109 L44.769,106.298 L44.769,117.285 L48.565,116.718 Z M14.103,105.589 L19.003,105.371 L19.057,112.654 L14.242,112.557 L14.048,112.553 L14.103,105.589 Z M14.439,124.233 L14.412,124.206 L13.95,123.744 L13.553,123.103 L12.652,122.98 L9.567,126.875 L9.619,126.895 L14.439,124.233 Z" id="Stroke-4" stroke="#8D1736" stroke-width="0.425"></path>
        </g>
    </g>
</svg>